<?xml version="1.0" standalone="no"?>
<!DOCTYPE svg PUBLIC "-//W3C//DTD SVG 1.1//EN" "http://www.w3.org/Graphics/SVG/1.1/DTD/svg11.dtd" >
<svg xmlns="http://www.w3.org/2000/svg">
<metadata>Generated by IcoMoon</metadata>
<defs>
<font id="Bloks" horiz-adv-x="1024">
<font-face units-per-em="1024" ascent="960" descent="-64" />
<missing-glyph horiz-adv-x="1024" />
<glyph unicode="&#x20;" horiz-adv-x="512" d="" />
<glyph unicode="&#xe900;" glyph-name="appearance" d="M892.384 685.972l-14.546-14.423-14.587-14.835-207.272-207.272 244.318-244.359c18.050-18.33 29.195-43.504 29.195-71.281 0-5.53-0.442-10.957-1.292-16.248l0.077 0.582c0.053 0.007 0.113 0.011 0.175 0.011 0.398 0 0.759-0.162 1.020-0.423v0l87.401-87.359c3.764-3.734 6.095-8.909 6.095-14.629s-2.33-10.894-6.093-14.627l-0.001-0.001-58.267-58.102c-3.69-3.809-8.853-6.173-14.567-6.173s-10.876 2.364-14.562 6.167l-87.447 87.364c-0.33 0.412 0 0.824-0.494 1.236-4.679-0.763-10.071-1.198-15.566-1.198-27.8 0-52.995 11.154-71.353 29.232l-244.346 244.346-229.772-229.936-233.109-116.616-29.134 29.257 116.575 233.233 29.134 28.845 200.638 200.679-166.106 166.065-29.134-28.845-29.134 28.845 29.134 29.257-157.741 157.824c-7.465 7.421-12.085 17.696-12.085 29.051s4.62 21.63 12.083 29.049l87.403 87.361c7.457 7.454 17.757 12.065 29.134 12.065s21.677-4.611 29.134-12.065v0l157.783-157.412 29.134 28.845 29.134-28.845-29.134-29.257 166.065-166.065 352.981 352.734c7.457 7.454 17.757 12.065 29.134 12.065s21.677-4.611 29.134-12.065l87.442-87.359c7.405-7.448 11.983-17.715 11.983-29.051s-4.577-21.603-11.985-29.053l0.002 0.002zM783.762 88.467c11.070-10.979 26.314-17.763 43.143-17.763 9.795 0 19.053 2.298 27.265 6.385l-0.356-0.16 2.678-2.885 87.401-87.359 29.134 29.257-87.401 87.359-2.678 2.472c3.817 7.827 6.049 17.029 6.049 26.752 0 17.044-6.857 32.486-17.963 43.718l-244.312 244.353-87.442-87.771zM76.522 44.787l29.134-28.845 145.709 87.359-87.401 87.359zM128.155 919.205l-87.401-87.359 157.741-157.824 87.442 87.359zM315.071 732.124l-87.442-87.359 166.106-166.065 87.401 87.359zM193.097 219.918l87.401-87.359 553.619 553.413-87.401 87.359zM892.384 919.205l-116.534-116.616 87.401-87.359 116.575 116.616z" />
<glyph unicode="&#xe901;" glyph-name="cancel" horiz-adv-x="1075" d="M1024 908.8h-51.2v-51.2h-51.2v-51.2h-51.2v-51.2h-51.2v-51.2h-51.2v-51.2h-51.2v-51.2h-51.2v-51.2h-51.2v-51.2h-51.2v51.2h51.2v51.2h51.2v51.2h51.2v51.2h51.2v51.2h51.2v51.2h51.2v51.2h51.2v51.2h51.2v51.2h51.2v-51.2zM614.4 448v-51.2h51.2v-51.2h51.2v-51.2h51.2v-51.2h51.2v-51.2h51.2v-51.2h51.2v-51.2h51.2v-51.2h51.2v-51.2h-51.2v51.2h-51.2v51.2h-51.2v51.2h-51.2v51.2h-51.2v51.2h-51.2v51.2h-51.2v51.2h-51.2v51.2h-51.2v51.2h-51.2v-51.2h-51.2v-51.2h-51.2v-51.2h-51.2v-51.2h-51.2v-51.2h-51.2v-51.2h-51.2v-51.2h-51.2v-51.2h-51.2v-51.2h-51.2v-51.2 102.4h51.2v51.2h51.2v51.2h51.2v51.2h51.2v51.2h51.2v51.2h51.2v51.2h51.2v51.2h51.2v51.2h51.2v51.2h51.2v-51.2h51.2zM460.8 550.4h-51.2v51.2h-51.2v51.2h-51.2v51.2h-51.2v51.2h-51.2v51.2h-51.2v51.2h-51.2v51.2h-51.2v51.2h51.2v-51.2h51.2v-51.2h51.2v-51.2h51.2v-51.2h51.2v-51.2h51.2v-51.2h51.2v-51.2h51.2v-51.2h51.2v-51.2h-51.2v51.2z" />
<glyph unicode="&#xe902;" glyph-name="delete-thumb" d="M877.714 82.286h146.286v-146.286h-146.286v146.286zM731.429 228.571h146.286v-146.286h-146.286v146.286zM585.143 374.857h146.286v-146.286h-146.286v146.286zM292.571 228.571v146.286h146.286v-146.286h-146.286zM146.286 82.286v146.286h146.286v-146.286h-146.286zM0-64v146.286h146.286v-146.286h-146.286zM438.857 521.143h146.286v-146.286h-146.286v146.286zM292.571 667.429h146.286v-146.286h-146.286v146.286zM146.286 813.714h146.286v-146.286h-146.286v146.286zM0 960h146.286v-146.286h-146.286v146.286zM731.429 667.429v-146.286h-146.286v146.286h146.286zM877.714 813.714v-146.286h-146.286v146.286h146.286zM1024 960v-146.286h-146.286v146.286h146.286z" />
<glyph unicode="&#xe903;" glyph-name="links" d="M824.889-64v0c31.419 0 56.889 25.47 56.889 56.889v512c0 31.419-25.47 56.889-56.889 56.889h-28.444v-56.889h28.444v-512h-768v108.942l142.222 118.613 199.111-199.111 227.556 227.556 199.111-170.667v56.889l-199.111 199.111-227.556-227.556-199.111 199.111-142.222-118.613v317.724h301.511l34.133 56.889h-335.644c-31.419 0-56.889-25.47-56.889-56.889v-512c0-31.419 25.47-56.889 56.889-56.889h768zM426.667 192c0 292.693-1.109 371.2 112.668 513.138l-84.224 84.196h284.444v-284.444l-90.738 90.738c-121.35-97.575-203.564-239.533-221.897-400.871l-0.255-2.756zM967.111 334.222h-28.444v56.889h28.444v512h-739.556v-398.222h-56.889v398.222c0 31.419 25.47 56.889 56.889 56.889v0h739.556c31.419 0 56.889-25.47 56.889-56.889v0-512c0-31.419-25.47-56.889-56.889-56.889v0zM796.444 817.778h-28.444v28.444h28.444v-28.444zM853.333 817.778h-28.444v28.444h28.444v-28.444zM910.222 817.778h-28.444v28.444h28.444v-28.444z" />
<glyph unicode="&#xe904;" glyph-name="desktop" horiz-adv-x="1434" d="M870.4 89.6v-102.4h102.4v-51.2h-512v51.2h102.4v102.4h-563.2v870.4h1433.6v-870.4h-563.2zM614.4-12.8h204.8v102.4h-204.8v-102.4zM1382.4 908.8h-1331.2v-768h1331.2v768z" />
<glyph unicode="&#xe905;" glyph-name="more" horiz-adv-x="1008" d="M822.891 320.737c-70.219 0.632-126.893 57.69-126.893 127.997 0 70.699 57.306 128.007 128.007 128.007 70.699 0 127.997-57.306 128.007-127.997v-0.001c-0.271-70.754-57.69-128.013-128.482-128.013-0.216 0-0.44 0.002-0.664 0.007l0.040-0.001zM822.891 540.22c-50.202-0.423-90.748-41.21-90.748-91.484 0-50.522 40.954-91.484 91.484-91.484 50.522 0 91.484 40.954 91.484 91.484v0c-0.213 50.57-41.258 91.484-91.852 91.484-0.136 0-0.264-0.001-0.392-0.003h0.024zM490.9 320.737c-70.219 0.632-126.893 57.69-126.893 127.997 0 70.699 57.306 128.007 128.007 128.007 70.699 0 127.997-57.306 128.007-127.997v-0.001c-0.271-70.754-57.69-128.013-128.482-128.013-0.216 0-0.44 0.002-0.664 0.007l0.040-0.001zM490.9 540.22c-50.202-0.423-90.748-41.21-90.748-91.484 0-50.522 40.954-91.484 91.484-91.484 50.522 0 91.484 40.954 91.484 91.484v0c-0.213 50.57-41.258 91.484-91.852 91.484-0.136 0-0.264-0.001-0.392-0.003h0.024zM158.893 320.737c-70.219 0.632-126.893 57.69-126.893 127.997 0 70.699 57.306 128.007 128.007 128.007 70.699 0 127.997-57.306 128.007-127.997v-0.001c-0.271-70.754-57.69-128.013-128.482-128.013-0.216 0-0.44 0.002-0.664 0.007l0.040-0.001zM158.893 540.22c-50.202-0.423-90.748-41.21-90.748-91.484 0-50.522 40.954-91.484 91.484-91.484 50.522 0 91.484 40.954 91.484 91.484v0c-0.213 50.57-41.258 91.484-91.852 91.484-0.136 0-0.264-0.001-0.392-0.003h0.024z" />
<glyph unicode="&#xe906;" glyph-name="check" horiz-adv-x="1449" d="M1447.966 790.761l-854.282-854.462-593.085 593.085 169.538 169.478 423.546-423.606 684.743 685.043z" />
<glyph unicode="&#xe907;" glyph-name="blend" horiz-adv-x="778" d="M389.12-64c-214.917 0-389.12 134.349-389.12 400.998 0 174.080 90.644 262.554 184.32 337.51 100.516 80.691 204.8 285.491 204.8 285.491s103.547-204.8 203.776-284.672c94.208-74.957 185.344-207.258 185.344-338.33 0-266.65-174.203-400.998-389.12-400.998zM614.4 591.36c-75.26 63.314-138.938 137.279-189.505 220.122l-2.229 3.929c-20.726 36.454-33.546 62.669-33.546 62.669s-10.199-20.48-26.911-50.79c-47.132-73.51-99.056-137.371-157.291-194.853l-0.119-0.117c-95.509-62.12-158.992-166.517-163.818-286.022l-0.022-0.698 1.106 0.41c-0.246-5.325-1.106-10.24-1.106-15.974 0-234.701 155.894-353.075 348.16-353.075s348.16 118.374 348.16 353.075c0 5.325-1.065 11.059-1.434 16.384 0.577-0.106 1.073-0.4 1.431-0.816l0.003-0.003c-0.573 4.915-1.802 9.421-2.58 14.336-1.413 11.723-3.339 22.014-5.862 32.069l0.374-1.758c-0.819 3.686-1.679 6.963-2.54 10.24-2.007 7.373-4.096 14.746-6.595 21.709-20.922 67.009-57.453 124.043-105.46 168.964l-0.217 0.201zM573.44 427.52c17.725-33.318 28.133-72.854 28.133-114.822 0-66.751-26.331-127.352-69.174-171.983l0.081 0.085c-18.255 8.378-32.582 22.705-40.75 40.451l-0.21 0.509s104.407 57.754 81.92 245.76z" />
<glyph unicode="&#xe908;" glyph-name="remove" horiz-adv-x="942" d="M860.16 755.2v-778.24c0-22.622-18.338-40.96-40.96-40.96v0h-696.32c-22.622 0-40.96 18.338-40.96 40.96v0 778.24h-81.92v40.96h245.76v122.88c0 22.622 18.338 40.96 40.96 40.96v0h368.64c22.622 0 40.96-18.338 40.96-40.96v0-122.88h245.76v-40.96h-81.92zM655.36 878.080c0 22.528-59.392 40.96-81.92 40.96h-245.76c-22.622 0-40.96-18.338-40.96-40.96v0-81.92h368.64v81.92zM819.2 755.2h-696.32v-737.28c0-22.622 18.338-40.96 40.96-40.96v0h614.4c22.622 0 40.96 18.338 40.96 40.96v0 737.28zM655.36 468.48h40.96v-204.8h-40.96v204.8zM450.56 591.36h40.96v-409.6h-40.96v409.6zM245.76 468.48h40.96v-204.8h-40.96v204.8z" />
<glyph unicode="&#xe909;" glyph-name="mobile" horiz-adv-x="563" d="M0-64v1024h563.2v-1024h-563.2zM512 908.8h-460.8v-716.8h460.8v716.8zM512 140.8h-460.8v-153.6h460.8v153.6zM307.2 38.4h-51.2v51.2h51.2v-51.2z" />
<glyph unicode="&#xe90a;" glyph-name="plus" d="M1024 421.053h-485.053v-485.053h-53.895v485.053h-485.053v53.895h485.053v485.053h53.895v-485.053h485.053v-53.895z" />
<glyph unicode="&#xe90b;" glyph-name="tablet" horiz-adv-x="768" d="M0-64v1024h768v-1024h-768zM51.2-12.8h665.6v153.6h-665.6v-153.6zM716.8 908.8h-665.6v-716.8h665.6v716.8zM358.4 89.6h51.2v-51.2h-51.2v51.2z" />
<glyph unicode="&#xe90c;" glyph-name="chevdown" horiz-adv-x="1955" d="M1861.818 866.909v-93.091h-93.091v-93.091h-93.091v-93.091h-93.091v-93.091h-93.091v-93.091h-93.091v-93.091h-93.091v-93.091h-93.091v-93.091h-93.091v-93.091h-93.091v-93.091h-93.091v93.091h-93.091v93.091h-93.091v93.091h-93.091v93.091h-93.091v93.091h-93.091v93.091h-93.091v93.091h-93.091v93.091h-93.091v93.091h-93.091v93.091h-93.091v93.091h186.182v-93.091h93.091v-93.091h93.091v-93.091h93.091v-93.091h93.091v-93.091h93.091v-93.091h93.091v-93.091h93.091v-93.091h93.091v-93.091h93.091v93.091h93.091v93.091h93.091v93.091h93.091v93.091h93.091v93.091h93.091v93.091h93.091v93.091h93.091v93.091h93.091v93.091h186.182v-93.091h-93.091z" />
<glyph unicode="&#xe90d;" glyph-name="plus2" d="M1024 408.615h-472.615v-472.615h-78.769v472.615h-472.615v78.769h472.615v472.615h78.769v-472.615h472.615v-78.769z" />
<glyph unicode="&#xe90e;" glyph-name="media-default" horiz-adv-x="783" d="M662.588-64h-542.118c-66.534 0-120.471 53.937-120.471 120.471v0 783.059c0 66.534 53.937 120.471 120.471 120.471v0h391.529c79.902-81.318 201.276-226.786 271.059-301.176v-602.353c0-66.534-53.937-120.471-120.471-120.471v0zM502.965 431.526c-13.643 9.788-173.719 124.205-181.73 129.867-9.939 7.078-20.058-1.958-20.058-14.005v-260.247c-0.159-0.77-0.25-1.655-0.25-2.561 0-7.302 5.92-13.222 13.222-13.222 2.481 0 4.802 0.683 6.786 1.872l-0.060-0.033c11.625 7.981 172.333 122.97 182.152 130.168 4.109 3.34 6.714 8.394 6.714 14.056 0 5.689-2.629 10.765-6.739 14.077l-0.035 0.027zM512 899.765v-240.941h210.824z" />
<glyph unicode="&#xe90f;" glyph-name="reset" horiz-adv-x="1026" d="M922.112 138.24l103.424 51.2v-51.2l-153.6-102.912h-51.2v257.024h51.2v-124.928c58.888 75.841 94.405 172.385 94.405 277.225 0 250.873-203.373 454.246-454.246 454.246s-454.246-203.373-454.246-454.246c0-231.168 172.68-422.005 396.086-450.558l2.258-0.236v-57.856c-259.673 28.594-459.866 246.764-459.866 511.691 0 284.212 230.399 514.611 514.611 514.611s514.611-230.399 514.611-514.611c0-116.733-38.867-224.388-104.366-310.73l0.93 1.279z" />
<glyph unicode="&#xe910;" glyph-name="mid-left" d="M1024 421.053h-925.642l440.589-448.404-35.948-36.648-503 512 35.948 36.648 467.052 475.352 35.948-36.648-440.589-448.404h925.642v-53.895z" />
<glyph unicode="&#xe911;" glyph-name="mid-right" d="M0 421.053h925.912l-440.859-448.404 35.948-36.648 503 512-36.109 36.648-466.89 475.352-35.948-36.648 440.859-448.404h-925.912v-53.895z" />
<glyph unicode="&#xe912;" glyph-name="chevron-left" horiz-adv-x="525" d="M498.872-37.744h26.256v-26.256h-26.256v26.256zM472.615-11.487h26.256v-26.256h-26.256v26.256zM446.359 14.769h26.256v-26.256h-26.256v26.256zM420.103 41.026h26.256v-26.256h-26.256v26.256zM393.846 67.282h26.256v-26.256h-26.256v26.256zM367.59 93.538h26.256v-26.256h-26.256v26.256zM341.333 119.795h26.256v-26.256h-26.256v26.256zM315.077 146.051h26.256v-26.256h-26.256v26.256zM288.821 172.308h26.256v-26.256h-26.256v26.256zM262.564 198.564h26.256v-26.256h-26.256v26.256zM236.308 224.821h26.256v-26.256h-26.256v26.256zM210.051 251.077h26.256v-26.256h-26.256v26.256zM183.795 277.333h26.256v-26.256h-26.256v26.256zM157.538 303.59h26.256v-26.256h-26.256v26.256zM131.282 329.846h26.256v-26.256h-26.256v26.256zM105.026 356.103h26.256v-26.256h-26.256v26.256zM78.769 382.359h26.256v-26.256h-26.256v26.256zM52.513 408.615h26.256v-26.256h-26.256v26.256zM26.256 434.872h26.256v-26.256h-26.256v26.256zM0 461.128h26.256v-26.256h-26.256v26.256zM52.513 487.385v-26.256h-26.256v26.256h26.256zM78.769 513.641v-26.256h-26.256v26.256h26.256zM105.026 539.897v-26.256h-26.256v26.256h26.256zM131.282 566.154v-26.256h-26.256v26.256h26.256zM157.538 592.41v-26.256h-26.256v26.256h26.256zM183.795 618.667v-26.256h-26.256v26.256h26.256zM210.051 644.923v-26.256h-26.256v26.256h26.256zM236.308 671.179v-26.256h-26.256v26.256h26.256zM262.564 697.436v-26.256h-26.256v26.256h26.256zM288.821 723.692v-26.256h-26.256v26.256h26.256zM315.077 749.949v-26.256h-26.256v26.256h26.256zM341.333 776.205v-26.256h-26.256v26.256h26.256zM367.59 802.462v-26.256h-26.256v26.256h26.256zM393.846 828.718v-26.256h-26.256v26.256h26.256zM420.103 854.974v-26.256h-26.256v26.256h26.256zM446.359 881.231v-26.256h-26.256v26.256h26.256zM472.615 907.487v-26.256h-26.256v26.256h26.256zM498.872 933.744v-26.256h-26.256v26.256h26.256zM525.128 960v-26.256h-26.256v26.256h26.256z" />
<glyph unicode="&#xe913;" glyph-name="colection-setting" horiz-adv-x="1033" d="M0-64.413v1024.413h1033.091v-1024.413h-1033.091zM991.768 919.090h-950.444v-286.786h950.444v286.786zM991.768 591.393h-950.444v-286.786h950.444v286.786zM991.768 263.697h-950.444v-286.786h950.444v286.786zM950.444 99.642h-123.971v40.91h123.971v-40.91zM950.444 427.338h-123.971v40.91h123.971v-40.91zM867.797 837.269h41.324v-41.324h41.324v-40.91h-41.324v-40.91h-41.324v40.91h-41.324v40.91h41.324v41.324z" />
<glyph unicode="&#xe914;" glyph-name="chevron-right" horiz-adv-x="525" d="M498.872 434.872v26.256h26.256v-26.256h-26.256zM472.615 408.615v26.256h26.256v-26.256h-26.256zM446.359 382.359v26.256h26.256v-26.256h-26.256zM420.103 356.103v26.256h26.256v-26.256h-26.256zM393.846 329.846v26.256h26.256v-26.256h-26.256zM367.59 303.59v26.256h26.256v-26.256h-26.256zM341.333 277.333v26.256h26.256v-26.256h-26.256zM315.077 251.077v26.256h26.256v-26.256h-26.256zM288.821 224.821v26.256h26.256v-26.256h-26.256zM262.564 198.564v26.256h26.256v-26.256h-26.256zM236.308 172.308v26.256h26.256v-26.256h-26.256zM210.051 146.051v26.256h26.256v-26.256h-26.256zM183.795 119.795v26.256h26.256v-26.256h-26.256zM157.538 93.538v26.256h26.256v-26.256h-26.256zM131.282 67.282v26.256h26.256v-26.256h-26.256zM105.026 41.026v26.256h26.256v-26.256h-26.256zM78.769 14.769v26.256h26.256v-26.256h-26.256zM52.513-11.487v26.256h26.256v-26.256h-26.256zM26.256-37.744v26.256h26.256v-26.256h-26.256zM0-64v26.256h26.256v-26.256h-26.256zM472.615 487.385h26.256v-26.256h-26.256v26.256zM446.359 513.641h26.256v-26.256h-26.256v26.256zM420.103 539.897h26.256v-26.256h-26.256v26.256zM393.846 566.154h26.256v-26.256h-26.256v26.256zM367.59 592.41h26.256v-26.256h-26.256v26.256zM341.333 618.667h26.256v-26.256h-26.256v26.256zM315.077 644.923h26.256v-26.256h-26.256v26.256zM288.821 671.179h26.256v-26.256h-26.256v26.256zM262.564 697.436h26.256v-26.256h-26.256v26.256zM236.308 723.692h26.256v-26.256h-26.256v26.256zM210.051 749.949h26.256v-26.256h-26.256v26.256zM183.795 776.205h26.256v-26.256h-26.256v26.256zM157.538 802.462h26.256v-26.256h-26.256v26.256zM131.282 828.718h26.256v-26.256h-26.256v26.256zM105.026 854.974h26.256v-26.256h-26.256v26.256zM78.769 881.231h26.256v-26.256h-26.256v26.256zM52.513 907.487h26.256v-26.256h-26.256v26.256zM26.256 933.744h26.256v-26.256h-26.256v26.256zM0 960h26.256v-26.256h-26.256v26.256z" />
<glyph unicode="&#xe915;" glyph-name="quotation-below" horiz-adv-x="1419" d="M77.22-64c148.174 96.194 272.607 215.136 371.893 353.359l2.79 4.084c38.52 54.57 72.334 116.949 98.451 183.203l2.103 6.052c21.356 52.204 34.309 112.719 35.58 176.101l0.008 0.514c0.008 0.834 0.012 1.82 0.012 2.807 0 42.464-8.076 83.041-22.776 120.28l0.773-2.221c-14.645 37.254-35.592 69.091-61.811 95.721l0.036-0.036c-27.552 26.098-60.234 47.106-96.335 61.321l-2.037 0.707c-34.975 13.974-75.512 22.078-117.942 22.078-0.497 0-0.993-0.001-1.49-0.003h0.077c-2.769 0.102-6.022 0.16-9.288 0.16-77.065 0-146.581-32.319-195.735-84.142l-0.113-0.12c-25.201-27.137-45.459-59.276-59.079-94.707l-0.682-2.019c-13.818-35.023-21.828-75.59-21.828-118.028 0-0.644 0.002-1.287 0.006-1.929v0.099c-0.102-2.704-0.161-5.88-0.161-9.069 0-42.758 10.489-83.067 29.034-118.493l-0.671 1.408c20.311-35.397 45.791-65.35 75.815-89.965l0.565-0.449q12.59-10.542 38.778-32.6c16.499-13.814 31.23-28.613 44.532-44.641l0.457-0.566c11.718-14.294 18.82-32.763 18.82-52.891 0-0.621-0.007-1.241-0.020-1.859l0.002 0.092q0-52.61-51.2-134.58c-43.595-66.344-90.88-124.14-143.499-176.586l-0.028-0.028zM908.17-64c148.174 96.194 272.607 215.136 371.893 353.359l2.79 4.084c38.602 54.572 72.422 116.957 98.474 183.248l2.080 6.007c21.356 52.204 34.309 112.719 35.58 176.101l0.008 0.514c0.002 0.409 0.003 0.893 0.003 1.377 0 42.608-8.072 83.331-22.77 120.722l0.776-2.241c-27.672 73.6-84.543 130.729-156.122 158.134l-1.842 0.62c-34.975 13.974-75.512 22.078-117.942 22.078-0.497 0-0.993-0.001-1.49-0.003h0.077c-2.769 0.102-6.022 0.16-9.288 0.16-77.065 0-146.581-32.319-195.735-84.142l-0.113-0.12c-26.155-26.434-46.835-58.342-60.163-93.846l-0.605-1.839c-13.297-35.064-20.996-75.606-20.996-117.946 0-1.026 0.005-2.052 0.014-3.076l-0.001 0.157q0-86.234 33.574-132.465c13.389-22.225 27.917-41.491 44.2-59.111l-0.218 0.239c17.274-18.652 35.355-35.84 54.475-51.827l0.922-0.75q30.468-25.18 40.792-33.574c19.396-16.649 31.606-41.194 31.606-68.59 0-1.016-0.017-2.028-0.050-3.035l0.004 0.147q0-52.61-51.368-134.58c-43.336-66.29-89.895-124.053-141.542-176.816l0.196 0.201z" />
<glyph unicode="&#xe916;" glyph-name="quotation-on" horiz-adv-x="1419" d="M301.425-64c2.019-0.052 4.397-0.082 6.781-0.082 78.493 0 149.463 32.213 200.41 84.14l0.043 0.044q79.536 84.086 79.553 216.551c0.184 3.602 0.288 7.822 0.288 12.065 0 44.967-11.752 87.19-32.352 123.764l0.655-1.265c-23.564 36.221-50.905 67.361-82.097 94.143l-0.578 0.485q-47.087 39.902-57.562 50.461c-20.504 15.803-33.585 40.369-33.585 67.99 0 0.489 0.004 0.976 0.012 1.463l-0.001-0.073q0 50.461 51.284 131.425c44.022 66.55 90.527 124.611 141.735 178.135l-0.44-0.463-64.814 65.217c-146.547-97.448-270.112-216.172-369.825-353.353l-2.844-4.107q-138.089-201.846-138.089-365.853 0-134.597 85.831-216.551c53.895-52.109 127.408-84.222 208.421-84.222 2.522 0 5.037 0.031 7.544 0.093l-0.371-0.007zM1132.46-64c2.011-0.052 4.379-0.081 6.754-0.081 78.502 0 149.48 32.212 200.438 84.14l0.043 0.044q79.536 84.086 79.553 216.551c0.184 3.602 0.288 7.822 0.288 12.065 0 44.967-11.752 87.19-32.352 123.764l0.655-1.265c-23.564 36.221-50.905 67.361-82.097 94.143l-0.578 0.485q-47.104 39.902-57.562 50.461c-20.504 15.803-33.585 40.369-33.585 67.99 0 0.489 0.004 0.976 0.012 1.463l-0.001-0.073q0 50.461 51.284 131.425c44.022 66.55 90.527 124.611 141.735 178.135l-0.44-0.463-64.814 65.217c-146.553-97.438-270.12-216.163-369.824-353.352l-2.844-4.108q-136.091-197.666-136.058-365.853c-0.202-4.027-0.317-8.745-0.317-13.489 0-158.759 128.7-287.459 287.459-287.459 4.309 0 8.596 0.095 12.859 0.282l-0.607-0.021z" />
<glyph unicode="&#xe917;" glyph-name="setting" d="M972.8 345.6h-64.512c3.786 14.014 7.195 31.375 9.502 49.081l0.226 2.119h29.184c14.138 0 25.6 11.462 25.6 25.6v0 51.2c0 14.138-11.462 25.6-25.6 25.6v0h-29.184c-2.535 19.827-5.943 37.188-10.38 54.131l0.652-2.931h64.512c28.277 0 51.2-22.923 51.2-51.2v0-102.4c0-28.277-22.923-51.2-51.2-51.2v0zM788.992 222.259c38.971 48.206 66.088 107.533 76.033 172.513l0.255 2.027h52.736c-10.531-81.368-43.804-153.491-93.15-211.52l0.478 0.576zM864.768 655.77c-2.048 3.072-4.096 5.786-6.144 8.806 29.582-47.348 50.242-103.296 58.141-163.264l0.227-2.112h-51.2c-10.136 67.007-37.66 126.25-77.787 174.67l0.475-0.59 30.72 30.72v14.438c9.358-10.881 18.45-22.852 26.801-35.361l0.847-1.349c-4.096 5.683-7.168 11.725-11.776 17.152l20.992 20.48c4.511 4.686 7.29 11.068 7.29 18.099s-2.779 13.413-7.298 18.107l0.008-0.008-36.352 36.198c-4.64 4.677-11.070 7.572-18.176 7.572s-13.536-2.895-18.174-7.571l-20.482-20.482c-12.42 9.677-26.455 19.341-41.045 28.182l-1.963 1.104 45.568 45.67c9.255 9.201 22.011 14.889 36.096 14.889s26.842-5.687 36.098-14.891l-0.002 0.002 72.704-72.397c9.262-9.265 14.991-22.063 14.991-36.198s-5.729-26.934-14.991-36.199v0zM563.2 883.2c0 14.138-11.462 25.6-25.6 25.6v0h-51.2c-14.138 0-25.6-11.462-25.6-25.6v0-29.133c-19.815-2.572-37.168-6.033-54.096-10.537l2.896 0.655v64.614c0 28.277 22.923 51.2 51.2 51.2v0h102.4c28.277 0 51.2-22.923 51.2-51.2v0-64.614c-14.032 3.849-31.385 7.31-49.090 9.653l-2.11 0.228v29.133zM460.8 801.792c-67.004-9.951-126.273-37.408-174.666-77.528l0.586 0.472-36.352 35.84c57.276 49.023 129.189 82.528 208.342 93.209l2.090 0.231v-52.224zM240.64 791.91c-4.64 4.677-11.070 7.572-18.176 7.572s-13.536-2.895-18.174-7.571l-0.002-0.002-36.352-36.198c-4.511-4.686-7.29-11.068-7.29-18.099s2.779-13.413 7.298-18.107l-0.008 0.008 20.992-20.48c-9.778-12.458-19.572-26.524-28.565-41.135l-1.131-1.975-45.568 45.67c-9.262 9.265-14.991 22.063-14.991 36.198s5.729 26.934 14.991 36.199v0l72.704 72.397c9.255 9.201 22.011 14.889 36.096 14.889s26.842-5.687 36.098-14.891l-0.002 0.002 45.568-45.67c-16.553-9.946-30.588-19.609-44.005-30.032l0.997 0.745zM105.984 499.2h-29.184c-14.138 0-25.6-11.462-25.6-25.6v0-51.2c0-14.138 11.462-25.6 25.6-25.6v0h29.184c2.533-19.825 5.942-37.186 10.38-54.13l-0.652 2.93h-64.512c-28.277 0-51.2 22.923-51.2 51.2v0 102.4c0 28.277 22.923 51.2 51.2 51.2v0h64.512c-3.785-14.012-7.193-31.373-9.502-49.079l-0.226-2.121zM199.68 709.12l35.328-35.482c-38.958-48.178-66.072-107.468-76.032-172.409l-0.256-2.029h-51.712c11.087 80.928 44.262 152.589 93.176 210.532l-0.504-0.612zM198.656 185.702c-48.339 57.617-81.233 129.707-91.433 208.904l-0.215 2.040h51.2c10.079-67.017 37.612-126.273 77.782-174.663l-0.47 0.583zM159.232 240.128c10.122-16.608 19.916-30.691 30.452-44.166l-0.756 1.004-20.992-20.48c-4.511-4.686-7.29-11.068-7.29-18.099s2.779-13.413 7.298-18.107l-0.008 0.008 36.352-36.198c4.64-4.677 11.070-7.572 18.176-7.572s13.536 2.895 18.174 7.571l20.482 20.482c12.42-9.677 26.456-19.341 41.045-28.182l1.963-1.104-45.568-45.67c-9.255-9.201-22.011-14.889-36.096-14.889s-26.842 5.687-36.098 14.891l0.002-0.002-72.704 72.397c-9.262 9.265-14.991 22.063-14.991 36.198s5.729 26.934 14.991 36.199v0zM286.208 170.906c48.136-39.14 107.534-66.265 172.624-75.945l1.968-0.24v-52.838c-81.341 10.721-153.423 43.979-211.538 93.214l0.594-0.491zM460.8 12.8c0-14.138 11.462-25.6 25.6-25.6v0h51.2c14.138 0 25.6 11.462 25.6 25.6v0 29.133c19.82 2.575 37.173 6.036 54.101 10.538l-2.901-0.656v-64.614c0-28.277-22.923-51.2-51.2-51.2v0h-102.4c-28.277 0-51.2 22.923-51.2 51.2v0 64.614c14.027-3.846 31.38-7.307 49.085-9.652l2.115-0.229v-29.133zM563.2 43.059v51.2c67.004 9.951 126.273 37.408 174.666 77.528l-0.586-0.472 36.864-36.659c-57.568-48.428-129.688-81.328-208.935-91.389l-2.009-0.208zM716.8 448c0-113.108-91.692-204.8-204.8-204.8s-204.8 91.692-204.8 204.8c0 113.108 91.692 204.8 204.8 204.8v0c113.108 0 204.8-91.692 204.8-204.8v0zM512 601.6c-84.831 0-153.6-68.769-153.6-153.6s68.769-153.6 153.6-153.6c84.831 0 153.6 68.769 153.6 153.6v0c0 84.831-68.769 153.6-153.6 153.6v0zM737.28 724.48c-47.906 39.461-107.116 66.905-172.079 76.905l-2.001 0.253v52.429c81.34-10.724 153.421-43.981 211.539-93.214l-0.595 0.491zM783.36 103.987c4.64-4.677 11.070-7.572 18.176-7.572s13.536 2.895 18.174 7.571l0.002 0.002 36.352 36.198c4.511 4.686 7.29 11.068 7.29 18.099s-2.779 13.413-7.298 18.107l0.008-0.008-20.992 20.48c9.78 12.471 19.574 26.554 28.565 41.184l1.131 1.978 45.568-45.67c9.262-9.265 14.991-22.063 14.991-36.198s-5.729-26.934-14.991-36.199v0l-72.704-72.397c-9.255-9.201-22.011-14.889-36.096-14.889s-26.842 5.687-36.098 14.891l0.002-0.002-45.568 45.67c16.553 9.946 30.589 19.61 44.006 30.032l-0.998-0.746z" />
<glyph unicode="&#xe918;" glyph-name="media" horiz-adv-x="1164" d="M1024 75.636c-51.2 0-93.091 88.204-93.091 139.636v46.545c0 51.433 41.891 139.636 93.091 139.636l139.636 46.545v-418.909zM1117.091 385.955l-93.091-31.046c-25.6 0-46.545-67.398-46.545-93.091v-46.545c0-25.693 20.945-93.091 46.545-93.091l93.091-31.046v294.819zM721.455 354.909c-0.017 0-0.037 0-0.057 0-123.619 0-229.888 74.29-276.595 180.66l-0.759 1.938c-37.489-81.964-118.778-137.886-213.129-137.886-129.046 0-233.658 104.612-233.658 233.658s104.612 233.658 233.658 233.658c86.739 0 162.44-47.264 202.752-117.442l0.602-1.137c40.010 123.052 153.671 210.431 287.74 210.431 166.757 0 301.94-135.183 301.94-301.94s-135.183-301.94-301.94-301.94c-0.195 0-0.389 0-0.584 0.001h0.030zM232.727 820.364c-102.825 0-186.182-83.356-186.182-186.182s83.356-186.182 186.182-186.182c102.825 0 186.182 83.356 186.182 186.182v0c0 102.825-83.356 186.182-186.182 186.182v0zM721.455 913.455c-141.385 0-256-114.615-256-256s114.615-256 256-256c141.385 0 256 114.615 256 256v0c0 141.385-114.615 256-256 256v0zM721.455 541.091c-64.266 0-116.364 52.098-116.364 116.364s52.098 116.364 116.364 116.364c64.266 0 116.364-52.098 116.364-116.364v0c0-64.266-52.098-116.364-116.364-116.364v0zM721.455 727.273c-38.56 0-69.818-31.259-69.818-69.818s31.259-69.818 69.818-69.818c38.56 0 69.818 31.259 69.818 69.818v0c0 38.56-31.259 69.818-69.818 69.818v0zM232.727 541.091c-51.413 0-93.091 41.678-93.091 93.091s41.678 93.091 93.091 93.091c51.413 0 93.091-41.678 93.091-93.091v0c0-51.413-41.678-93.091-93.091-93.091v0zM232.727 680.727c-25.706 0-46.545-20.839-46.545-46.545s20.839-46.545 46.545-46.545c25.706 0 46.545 20.839 46.545 46.545v0c0 25.706-20.839 46.545-46.545 46.545v0zM46.545 29.091c0-25.706 20.839-46.545 46.545-46.545v0h698.182c25.706 0 46.545 20.839 46.545 46.545v0 300.916c18.176 6.765 33.516 14.003 48.146 22.344l-1.601-0.84v-322.42c0-51.413-41.678-93.091-93.091-93.091v0h-698.182c-51.413 0-93.091 41.678-93.091 93.091v0 410.717c13.86-13.232 29.077-25.298 45.339-35.894l1.207-0.737v-374.086z" />
<glyph unicode="&#xe919;" glyph-name="upload" d="M860.16 714.24v-163.84h-81.92v163.84h-163.84v81.92h163.84v163.84h81.92v-163.84h163.84v-81.92h-163.84zM327.68 755.2l-40.96-81.92h-40.96l40.96 81.92c0 45.243 36.677 81.92 81.92 81.92v0h204.8v-40.96h-204.8c-22.622 0-40.96-18.338-40.96-40.96v0zM409.6 714.24h122.88v-40.96h-122.88v40.96zM696.32 304.64c0-113.108-91.692-204.8-204.8-204.8s-204.8 91.692-204.8 204.8c0 113.108 91.692 204.8 204.8 204.8v0c113.108 0 204.8-91.692 204.8-204.8v0zM491.52 468.48c-90.486 0-163.84-73.354-163.84-163.84s73.354-163.84 163.84-163.84c90.486 0 163.84 73.354 163.84 163.84v0c0 90.486-73.354 163.84-163.84 163.84v0zM491.52 222.72c-45.243 0-81.92 36.677-81.92 81.92s36.677 81.92 81.92 81.92c45.243 0 81.92-36.677 81.92-81.92v0c0-45.243-36.677-81.92-81.92-81.92v0zM491.52 345.6c-22.622 0-40.96-18.338-40.96-40.96s18.338-40.96 40.96-40.96c22.622 0 40.96 18.338 40.96 40.96v0c0 22.622-18.338 40.96-40.96 40.96v0zM737.28 488.96c0.172 7.41 1.66 14.424 4.239 20.885l-0.143-0.405h114.688c2.436-6.056 3.924-13.070 4.095-20.41l0.001-0.070c0-33.932-27.508-61.44-61.44-61.44s-61.44 27.508-61.44 61.44v0zM819.2 488.96c0 11.311-9.169 20.48-20.48 20.48s-20.48-9.169-20.48-20.48c0-11.311 9.169-20.48 20.48-20.48v0c11.311 0 20.48 9.169 20.48 20.48v0zM286.72 632.32h-204.8c-22.622 0-40.96-18.338-40.96-40.96v0-573.44c0-22.622 18.338-40.96 40.96-40.96v0h819.2c22.622 0 40.96 18.338 40.96 40.96v0 573.44c0 22.622-18.338 40.96-40.96 40.96v0 0 40.96c45.243 0 81.92-36.677 81.92-81.92v0-573.44c0-45.243-36.677-81.92-81.92-81.92v0h-819.2c-45.243 0-81.92 36.677-81.92 81.92v0 573.44c0 45.243 36.677 81.92 81.92 81.92v0h204.8v-40.96z" />
<glyph unicode="&#xe91a;" glyph-name="pencil" horiz-adv-x="1027" d="M54.615-64.846l-53.846 54.385 140.769 358.231 53.846 54.385 536.154 536.154c13.993 13.942 33.298 22.562 54.615 22.562s40.622-8.62 54.618-22.564l163.075-163.152c13.915-13.92 22.522-33.147 22.522-54.385s-8.607-40.465-22.522-54.385v0l-63.846-63.769-26.923-27.154-27.692-27.231-472.308-472.462zM949.231 720.769l-163.077 163.154-63.846-63.692 163.077-163.231zM831.538 602.615l-163.846 163.231-417.692-418.077 163.077-163.231zM195.385 293.308l-86.154-195 54.615-54.385 194.615 86.231z" />
<glyph unicode="&#xe91b;" glyph-name="close" d="M1023.868 773.716l-325.716-325.716 325.716-325.716-186.218-186.086-325.716 325.716-325.716-325.716-186.218 186.086 325.716 325.716-325.716 325.716 186.218 186.086 325.716-325.716 325.716 325.716z" />
<glyph unicode="&#xe91c;" glyph-name="map" horiz-adv-x="778" d="M592.896 220.672c-51.649-46.848-95.924-100.508-131.749-159.842l-1.781-3.178c158.597-5.734 277.914-30.72 277.914-60.211 0-33.997-155.894-61.44-348.16-61.44v0c-192.266 0-348.16 27.443-348.16 61.44 0 29.491 119.153 54.477 277.627 60.211-37.959 62.737-82.415 116.644-133.576 163.329l-0.568 0.511c-93.798 74.957-184.32 163.43-184.32 337.51 0 266.65 174.203 400.998 389.12 400.998s389.12-134.349 389.12-400.998c-0.123-131.072-91.341-263.373-185.467-338.33zM696.32-2.56c0 9.83-101.704 47.923-237.978 58.573-19.046-29.901-35.185-57.754-47.145-79.053 159.334 0.819 285.123 9.83 285.123 20.48zM81.92-2.56c0-10.65 125.747-19.661 285-20.48-12.001 21.299-28.221 49.152-47.309 79.053-136.151-10.65-237.691-48.742-237.691-58.573zM389.12 919.040c-192.266 0-348.16-118.374-348.16-353.075 0-5.734 0.86-10.65 1.106-15.974l-1.106 0.41c4.848-120.203 68.331-224.6 162.459-285.877l1.381-0.843c58.354-57.599 110.277-121.46 154.756-190.566l2.653-4.404c1.966-3.686 3.564-6.554 5.366-9.83h21.545c-7.25 0-14.336-0.41-21.422-0.41 13.23-24.166 21.422-40.55 21.422-40.55s8.192 16.384 21.258 40.55c-7.045 0-14.090 0.41-21.258 0.41h21.381c3.686 6.554 7.66 13.926 12.288 21.709 52.746 86.776 116.386 160.742 190.26 222.943l1.351 1.108c48.22 45.117 84.741 102.154 104.897 166.431l0.739 2.733c2.58 6.963 4.628 14.336 6.636 21.709 0.86 3.277 1.72 6.554 2.54 10.24 2.15 8.297 4.076 18.588 5.365 29.076l0.124 1.234c0.778 4.915 2.007 9.421 2.58 14.336-0.368-0.409-0.86-0.701-1.417-0.816l-0.017-0.003c0.369 5.325 1.434 11.059 1.434 16.384 0 234.701-155.894 353.075-348.16 353.075zM389.12 427.52c-79.176 0-143.36 64.184-143.36 143.36s64.184 143.36 143.36 143.36c79.176 0 143.36-64.184 143.36-143.36v0c0-79.176-64.184-143.36-143.36-143.36v0zM389.12 673.28c-56.554 0-102.4-45.846-102.4-102.4s45.846-102.4 102.4-102.4c56.554 0 102.4 45.846 102.4 102.4v0c0 56.554-45.846 102.4-102.4 102.4v0z" />
<glyph unicode="&#xe91d;" glyph-name="delete-thumb2" d="M929.484-62.417l-418.276 418.276-418.118-418.276-92.933 92.933 418.118 418.276-418.118 418.118 92.933 92.933 418.118-418.118 418.276 418.118 92.933-92.933-418.118-418.118 418.118-418.276z" />
<glyph unicode="&#xe91e;" glyph-name="line" horiz-adv-x="28" d="M0 960h28.444v-1024h-28.444v1024z" />
<glyph unicode="&#xe91f;" glyph-name="menulist" horiz-adv-x="565" d="M32.060 255.895h500.669c23.305 0 40.623-15.451 26.974-30.708-10.88-12.232-230.989-256.612-249.852-277.47-7.198-6.329-16.7-10.191-27.103-10.191s-19.905 3.862-27.149 10.23l0.046-0.040c-13.841 15-235.045 260.346-250.431 278.114-11.266 13.004 1.159 30.065 26.846 30.065zM32.060 642.165h500.669c23.305 0 40.623 15.451 26.974 30.708-10.88 12.232-230.989 256.612-249.852 277.47-7.198 6.329-16.7 10.191-27.103 10.191s-19.905-3.862-27.149-10.23l0.046 0.040c-13.841-15-235.045-260.346-250.431-278.114-11.266-13.004 1.159-30.065 26.846-30.065z" />
<glyph unicode="&#xe920;" glyph-name="show" horiz-adv-x="1365" d="M682.667-64c-321.587 0.586-593.16 214.045-681.361 506.953l-1.306 5.047c90.164 297.519 361.343 510.617 682.504 511.999l0.163 0.001c377.173 0 587.947-258.304 682.667-512-91.307-253.696-305.493-512-682.667-512zM682.667 789.333c-338.773 0-512-341.333-512-341.333s157.867-341.333 512-341.333 512 341.333 512 341.333-173.227 341.333-512 341.333zM682.667 192c-188.513 0-341.333 152.82-341.333 341.333s152.82 341.333 341.333 341.333c188.513 0 341.333-152.82 341.333-341.333v0c0-188.513-152.82-341.333-341.333-341.333v0zM512 704c-38.566-45.834-61.999-105.514-61.999-170.667s23.433-124.833 62.331-171.071l-0.332 0.405c-31.573 164.693 33.28 362.581 170.667 426.667-103.253-46.421-170.667-85.333-170.667-85.333z" />
<glyph unicode="&#xe921;" glyph-name="mp4" horiz-adv-x="846" d="M0-64v1024h623.304v-222.609h222.609v-801.391h-845.913zM356.174 158.609v-133.565h44.522v44.522h89.043v44.522h44.522v44.522h-44.522v44.522h-133.565v-44.522zM311.652 158.609v44.522h-44.522v-44.522h-44.522v-44.522h-44.522v44.522h-44.522v44.522h-44.522v-178.087h44.522v89.043h44.522v-44.522h44.522v44.522h44.522v-89.043h44.522v133.565zM578.783 514.783h-44.522v44.522h-44.522v44.522h-44.522v44.522h-44.522v44.522h-44.522v-400.696h44.522v44.522h44.522v44.522h44.522v44.522h44.522v44.522h44.522v44.522zM756.87 114.087h-44.522v89.043h-89.043v-44.522h-44.522v-89.043h89.043v-44.522h44.522v44.522h44.522v44.522zM667.826 114.087h-44.522v44.522h44.522v-44.522zM400.696 158.609h89.043v-44.522h-89.043v44.522zM667.826 781.913v133.565h44.522v-44.522h44.522v-44.522h44.522v-44.522h-133.565z" />
<glyph unicode="&#xe922;" glyph-name="link" horiz-adv-x="1023" d="M111.637-38.839l-88.691 88.649c-15.134 15.128-24.495 36.031-24.495 59.12s9.361 43.992 24.495 59.12l236.44 236.44c15.126 15.122 36.021 24.475 59.099 24.475s43.973-9.353 59.1-24.475v0l-29.55-29.55c-7.563 7.561-18.010 12.237-29.55 12.237s-21.987-4.676-29.55-12.237l-236.439-236.439c-7.561-7.563-12.237-18.010-12.237-29.55s4.676-21.987 12.237-29.55l88.691-88.691c7.563-7.561 18.010-12.237 29.55-12.237s21.987 4.676 29.55 12.237l236.439 236.439c7.561 7.563 12.237 18.010 12.237 29.55s-4.676 21.987-12.237 29.55v0l29.55 29.55c15.122-15.126 24.475-36.021 24.475-59.099s-9.353-43.973-24.475-59.1l-236.439-236.439c-15.126-15.122-36.021-24.475-59.099-24.475s-43.973 9.353-59.1 24.475v0zM306.239 274.004l379.131 379.173 29.592-29.592-379.173-379.131zM643.574 493.14v0l29.592 29.55c7.563-7.561 18.010-12.237 29.55-12.237s21.987 4.676 29.55 12.237l236.439 236.439c7.561 7.563 12.237 18.010 12.237 29.55s-4.676 21.987-12.237 29.55l-88.691 88.691c-7.563 7.561-18.010 12.237-29.55 12.237s-21.987-4.676-29.55-12.237l-236.439-236.439c-7.561-7.563-12.237-18.010-12.237-29.55s4.676-21.987 12.237-29.55v0l-29.55-29.592c-15.134 15.128-24.495 36.031-24.495 59.12s9.361 43.992 24.495 59.12l236.44 236.44c15.126 15.122 36.021 24.475 59.099 24.475s43.973-9.353 59.1-24.475l88.691-88.691c15.122-15.126 24.475-36.021 24.475-59.099s-9.353-43.973-24.475-59.1l-236.439-236.439c-15.128-15.134-36.031-24.495-59.12-24.495s-43.992 9.361-59.12 24.495v0z" />
<glyph unicode="&#xe923;" glyph-name="warning" horiz-adv-x="1185" d="M64.926-64h1053.75c0.73-0.030 1.587-0.047 2.448-0.047 35.555 0 64.377 28.823 64.377 64.377 0 12.811-3.742 24.747-10.192 34.777l0.154-0.255c-22.953 39.352-486.152 826.266-525.778 893.417-11.654 19.761-32.834 32.811-57.062 32.811s-45.407-13.050-56.894-32.504l-0.168-0.308c-29.079-48.344-494.656-838.245-526.997-895.428-5.697-9.38-9.069-20.718-9.069-32.844 0-35.353 28.659-64.011 64.011-64.011 0.499 0 0.996 0.006 1.491 0.017l-0.074-0.001zM594.392 301.78c-20.469 1.17-36.625 18.055-36.625 38.713 0 0.675 0.017 1.346 0.051 2.012l-0.004-0.093-24.385 314.997c-0.030 0.573-0.048 1.244-0.048 1.919 0 20.658 16.156 37.543 36.522 38.708l0.103 0.005h48.771c20.469-1.17 36.625-18.055 36.625-38.713 0-0.675-0.017-1.346-0.051-2.012l0.004 0.093-24.385-314.997c0.030-0.573 0.048-1.244 0.048-1.919 0-20.658-16.156-37.543-36.522-38.708l-0.103-0.005zM594.392 240.816c33.669 0 60.963-27.294 60.963-60.963s-27.294-60.963-60.963-60.963c-33.669 0-60.963 27.294-60.963 60.963v0c0 33.669 27.294 60.963 60.963 60.963v0z" />
<glyph unicode="&#xe924;" glyph-name="edit" horiz-adv-x="1025" d="M30.031-64.463l-29.778 29.778 119.155 238.268 744.54 744.54c7.624 7.632 18.16 12.353 29.799 12.353s22.176-4.721 29.799-12.353v0l89.335-89.335c7.619-7.622 12.332-18.15 12.332-29.778s-4.713-22.157-12.332-29.778l-744.582-744.582zM983.102 829.010l-89.377 89.335-119.113-119.113 89.335-89.377zM834.169 680.076l-89.335 89.377-565.87-565.744 89.335-89.377zM149.186 173.805l-89.377-148.933 29.778-29.778 148.933 89.335z" />
<glyph unicode="&#xe925;" glyph-name="vimeo" horiz-adv-x="1198" d="M0 598.515s178.613 367.942 360.248 360.866c108.404 4.671 180.193-421.045 180.193-421.045s21.708-391.574 180.124-180.399 284.269 366.019 180.124 360.866c-89.355-10.961-170.588-32.103-247.125-62.522l6.685 2.343s218.388 310.030 360.248 300.756c215.297-14.152 208.565-268.537 120.083-421.045s-481.911-602.337-600.413-601.375-177.788 178.2-240.44 480.88-145.157 277.537-300.207 180.467z" />
<glyph unicode="&#xe926;" glyph-name="youtube" horiz-adv-x="1609" d="M1462.857-64h-1316.571c-80.791 0-146.286 65.494-146.286 146.286v0 731.429c0 80.791 65.494 146.286 146.286 146.286v0h1316.571c80.791 0 146.286-65.494 146.286-146.286v0-731.429c0-80.791-65.494-146.286-146.286-146.286v0zM1008.421 467.895c-23.698 14.263-301.349 180.955-315.246 189.221-3.448 2.215-7.657 3.531-12.173 3.531-12.563 0-22.747-10.184-22.747-22.747 0-0.419 0.011-0.835 0.034-1.248l-0.002 0.058v-379.246c-0.012-0.275-0.019-0.598-0.019-0.922 0-12.482 10.119-22.601 22.601-22.601 4.273 0 8.269 1.186 11.676 3.246l-0.101-0.057c20.187 11.63 298.935 179.2 315.977 189.659 6.971 4.297 11.548 11.891 11.548 20.553s-4.577 16.256-11.445 20.494l-0.104 0.060z" />
<glyph unicode="&#xe927;" glyph-name="tabbot" horiz-adv-x="1626" d="M0 960h1626.353v-572.235h-1626.353v572.235zM1385.412 146.824h-1385.412v30.118h1385.412v-30.118zM0 237.176h1626.353v-30.118h-1626.353v30.118zM0 297.412h1626.353v-30.118h-1626.353v30.118zM0 56.471h301.176v-120.471h-301.176v120.471zM331.294 56.471h301.176v-120.471h-301.176v120.471zM662.588 56.471h301.176v-120.471h-301.176v120.471zM993.882 56.471h301.176v-120.471h-301.176v120.471zM1325.176 56.471h301.176v-120.471h-301.176v120.471z" />
<glyph unicode="&#xe928;" glyph-name="tableft" horiz-adv-x="1784" d="M660.645 2.065v33.032h1123.097v-33.032h-1123.097zM660.645 101.161h1123.097v-33.032h-1123.097v33.032zM660.645 167.226h1123.097v-33.032h-1123.097v33.032zM660.645 960h1123.097v-561.548h-1123.097v561.548zM1519.484-64h-858.839v33.032h858.839v-33.032zM660.645 233.29h1123.097v-33.032h-1123.097v33.032zM660.645 299.355h1123.097v-33.032h-1123.097v33.032zM0 960h528.516v-132.129h-528.516v132.129zM0 794.839h528.516v-132.129h-528.516v132.129zM0 629.677h528.516v-132.129h-528.516v132.129zM0 464.516h528.516v-132.129h-528.516v132.129zM0 299.355h528.516v-132.129h-528.516v132.129z" />
<glyph unicode="&#xe929;" glyph-name="tabright" horiz-adv-x="1784" d="M0 2.065v33.032h1123.097v-33.032h-1123.097zM0 101.161h1123.097v-33.032h-1123.097v33.032zM0 167.226h1123.097v-33.032h-1123.097v33.032zM0 960h1123.097v-561.548h-1123.097v561.548zM1123.097-64h-858.839v33.032h858.839v-33.032zM0 233.29h1123.097v-33.032h-1123.097v33.032zM0 299.355h1123.097v-33.032h-1123.097v33.032zM1255.226 960h528.516v-132.129h-528.516v132.129zM1255.226 794.839h528.516v-132.129h-528.516v132.129zM1255.226 629.677h528.516v-132.129h-528.516v132.129zM1255.226 464.516h528.516v-132.129h-528.516v132.129zM1255.226 299.355h528.516v-132.129h-528.516v132.129z" />
<glyph unicode="&#xe92a;" glyph-name="tabtop" horiz-adv-x="1580" d="M0 725.943h1579.886v-555.886h-1579.886v555.886zM1345.829-64h-1345.829v29.257h1345.829v-29.257zM0 23.771h1579.886v-29.257h-1579.886v29.257zM0 82.286h1579.886v-29.257h-1579.886v29.257zM0 960h292.571v-117.029h-292.571v117.029zM321.829 960h292.571v-117.029h-292.571v117.029zM643.657 960h292.571v-117.029h-292.571v117.029zM965.486 960h292.571v-117.029h-292.571v117.029zM1287.314 960h292.571v-117.029h-292.571v117.029z" />
<glyph unicode="&#xe92b;" glyph-name="success" horiz-adv-x="1648" d="M1647.224 960l-1024.886-1024.725-113.518 113.84-508.82 508.337h227.842l394.496-394.496 797.044 797.044h227.842z" />
<glyph unicode="&#xe92c;" glyph-name="address" horiz-adv-x="1007" d="M821.451 3.516h-596.396c-14.066 0-28.132 11.253-28.132 28.132v455.736c0 14.066 11.253 28.132 28.132 28.132s28.132-11.253 28.132-28.132v-427.604h542.945v427.604c0 14.066 11.253 28.132 28.132 28.132s28.132-11.253 28.132-28.132v-455.736c-2.813-14.066-16.879-28.132-30.945-28.132zM632.967 203.253h-219.429c-14.066 0-28.132 11.253-28.132 28.132v219.429c0 14.066 11.253 28.132 28.132 28.132h219.429c14.066 0 28.132-11.253 28.132-28.132v-219.429c0-14.066-14.066-28.132-28.132-28.132zM441.67 259.516h165.978v165.978h-165.978v-165.978zM225.055 616.791c-14.066 0-28.132 11.253-28.132 28.132v258.813c0 14.066 11.253 28.132 28.132 28.132h123.78c14.066 0 28.132-11.253 28.132-28.132v-146.286c0-14.066-11.253-28.132-28.132-28.132s-28.132 11.253-28.132 28.132v118.154h-67.516v-230.681c0-14.066-14.066-28.132-28.132-28.132zM903.033 394.549c-5.626 0-14.066 2.813-16.879 5.626l-368.527 326.33-365.714-326.33c-5.626-5.626-11.253-8.44-19.692-5.626-8.44 0-14.066 2.813-19.692 8.44l-67.516 75.956c-5.626 5.626-8.44 14.066-5.626 22.505 0 2.813 0 2.813 0 5.626 0 8.44 2.813 14.066 8.44 19.692l447.297 396.659c5.626 5.626 14.066 8.44 22.505 5.626 8.44 0 16.879 0 22.505-5.626l444.484-396.659c5.626-5.626 11.253-16.879 8.44-25.319 0-8.44 0-16.879-5.626-22.505l-64.703-75.956c-2.813-2.813-11.253-5.626-19.692-8.44 0 0 0 0 0 0zM101.275 501.451l36.571-39.385 362.901 326.33c11.253 8.44 25.319 8.44 36.571 0l365.714-323.516 33.758 39.385-416.352 371.341-419.165-374.154z" />
<glyph unicode="&#xe92d;" glyph-name="phone" horiz-adv-x="1007" d="M759.56 464.879c-2.813 0-2.813 0-5.626 0-14.066 2.813-25.319 16.879-22.505 30.945 5.626 25.319 2.813 47.824-5.626 75.956-5.626 25.319-22.505 50.637-45.011 73.143-19.692 19.692-45.011 33.758-73.143 36.571-16.879 2.813-30.945 2.813-42.198-2.813-14.066-5.626-28.132 2.813-33.758 16.879s2.813 28.132 16.879 33.758c19.692 5.626 42.198 8.44 67.516 2.813 39.385-5.626 73.143-25.319 101.275-53.451 30.945-30.945 47.824-61.89 59.077-95.648s11.253-64.703 5.626-98.462c2.813-8.44-8.44-19.692-22.505-19.692zM900.22 397.363c-2.813 0-5.626 0-8.44 0-14.066 5.626-22.505 19.692-16.879 33.758 19.692 67.516 19.692 135.033 0 194.11-14.066 45.011-39.385 87.209-73.143 123.78-39.385 39.385-75.956 61.89-118.154 73.143-53.451 16.879-106.901 16.879-160.352 0-14.066-5.626-28.132 2.813-33.758 16.879s2.813 28.132 16.879 33.758c61.89 19.692 126.593 19.692 191.297 0 47.824-14.066 95.648-42.198 140.659-87.209 39.385-42.198 67.516-90.022 84.396-143.473 25.319-70.33 25.319-149.099 0-227.868 0-8.44-11.253-16.879-22.505-16.879zM517.626 228.571c-61.89 0-132.22 42.198-185.67 112.527-73.143 95.648-87.209 208.176-30.945 261.626 11.253 11.253 28.132 8.44 39.385 0 11.253-11.253 8.44-28.132 0-39.385-30.945-28.132-22.505-112.527 36.571-188.484 59.077-78.769 137.846-104.088 174.418-84.396 14.066 8.44 28.132 2.813 36.571-11.253s2.813-28.132-11.253-36.571c-19.692-11.253-39.385-14.066-59.077-14.066zM607.648-7.736c-98.462 0-244.747 104.088-374.154 272.879-157.538 208.176-213.802 416.352-132.22 486.681 47.824 39.385 56.264 42.198 67.516 42.198 14.066 0 28.132-11.253 28.132-28.132 0-11.253-8.44-22.505-19.692-25.319-2.813-2.813-14.066-8.44-39.385-30.945-50.637-42.198-5.626-222.242 137.846-413.538 146.286-191.297 306.637-281.319 362.901-241.934 16.879 11.253 39.385 28.132 47.824 36.571 11.253 11.253 28.132 11.253 39.385 0s11.253-28.132 0-39.385c-2.813-2.813-14.066-14.066-53.451-42.198-19.692-8.44-39.385-16.879-64.703-16.879zM739.868 65.407c-16.879 0-30.945 5.626-42.198 19.692v0l-140.659 182.857c-16.879 22.505-14.066 53.451 11.253 73.143l64.703 47.824c22.505 16.879 53.451 11.253 70.33-11.253l140.659-182.857c8.44-11.253 11.253-25.319 8.44-39.385s-8.44-25.319-19.692-33.758l-64.703-47.824c-8.44-5.626-16.879-8.44-28.132-8.44zM602.022 298.901l137.846-177.231 59.077 45.011-137.846 177.231-59.077-45.011zM362.901 557.714c-16.879 0-30.945 5.626-39.385 19.692l-140.659 182.857c-16.879 22.505-14.066 53.451 11.253 73.143l64.703 47.824c11.253 8.44 25.319 11.253 39.385 8.44s25.319-8.44 33.758-19.692l140.659-182.857c8.44-11.253 11.253-25.319 8.44-39.385s-8.44-25.319-19.692-33.758l-64.703-47.824c0 0-2.813-2.813-2.813-2.813-14.066-2.813-22.505-5.626-30.945-5.626zM225.055 791.209l137.846-177.231 59.077 45.011-137.846 177.231-59.077-45.011z" />
<glyph unicode="&#xe92e;" glyph-name="fax" horiz-adv-x="1007" d="M793.319 563.341c-14.066 0-28.132 11.253-28.132 28.132v115.341c0 14.066 11.253 28.132 28.132 28.132s28.132-11.253 28.132-28.132v-115.341c0-14.066-14.066-28.132-28.132-28.132zM759.56-2.11h-523.253c-33.758 0-61.89 28.132-61.89 61.89v168.791c0 14.066 11.253 28.132 28.132 28.132s28.132-11.253 28.132-28.132v-168.791c0-5.626 5.626-5.626 5.626-5.626h523.253c5.626 0 5.626 5.626 5.626 5.626v168.791c0 14.066 11.253 28.132 28.132 28.132s28.132-11.253 28.132-28.132v-168.791c0-33.758-28.132-61.89-61.89-61.89zM202.549 560.527c-14.066 0-28.132 11.253-28.132 28.132v301.011c0 33.758 28.132 61.89 61.89 61.89h340.396c14.066 0 28.132-11.253 28.132-28.132s-11.253-28.132-28.132-28.132h-340.396c-5.626 0-5.626-5.626-5.626-5.626v-301.011c0-14.066-14.066-28.132-28.132-28.132zM793.319 678.681h-182.857c-33.758 0-61.89 28.132-61.89 61.89v182.857c0 11.253 5.626 19.692 16.879 25.319 11.253 2.813 22.505 2.813 28.132-5.626l216.615-216.615c8.44-8.44 11.253-19.692 5.626-28.132-2.813-11.253-11.253-19.692-22.505-19.692zM604.835 858.725v-118.154c0-5.626 5.626-5.626 5.626-5.626h118.154l-123.78 123.78zM953.67 200.44h-160.352c-14.066 0-25.319 11.253-28.132 25.319l-2.813 90.022h-531.692l-2.813-90.022c0-14.066-11.253-25.319-28.132-25.319h-163.165c-14.066 0-28.132 11.253-28.132 28.132v354.462c0 14.066 11.253 28.132 28.132 28.132h914.286c14.066 0 28.132-11.253 28.132-28.132v-354.462c2.813-14.066-11.253-28.132-25.319-28.132zM818.637 256.703h106.901v298.198h-860.835v-301.011h109.714l2.813 90.022c0 14.066 11.253 25.319 28.132 25.319h585.143c14.066 0 25.319-11.253 28.132-25.319v-87.209zM683.604 116.044h-374.154c-14.066 0-28.132 11.253-28.132 28.132s11.253 28.132 28.132 28.132h374.154c14.066 0 28.132-11.253 28.132-28.132s-14.066-28.132-28.132-28.132zM683.604 206.066h-374.154c-14.066 0-28.132 11.253-28.132 28.132s11.253 28.132 28.132 28.132h374.154c14.066 0 28.132-11.253 28.132-28.132s-14.066-28.132-28.132-28.132zM137.846 484.571h16.879c5.626 0 8.44-2.813 8.44-8.44v-19.692c0-2.813-2.813-8.44-8.44-8.44h-16.879c-5.626 0-8.44 2.813-8.44 8.44v19.692c0 2.813 5.626 8.44 8.44 8.44v0zM154.725 419.868h-16.879c-19.692 0-36.571 14.066-36.571 36.571v19.692c0 16.879 16.879 36.571 36.571 36.571h16.879c19.692 0 36.571-14.066 36.571-36.571v-19.692c0-16.879-14.066-36.571-36.571-36.571zM137.846 467.692c2.813-2.813 5.626-5.626 8.44-8.44 2.813 0 5.626 2.813 5.626 5.626-2.813 2.813-5.626 5.626-8.44 8.44 0-2.813-2.813-2.813-5.626-5.626zM264.44 484.571h16.879c5.626 0 8.44-2.813 8.44-8.44v-19.692c0-2.813-2.813-8.44-8.44-8.44h-16.879c-5.626 2.813-11.253 5.626-11.253 8.44v19.692c0 2.813 5.626 8.44 11.253 8.44v0zM281.319 419.868h-22.505l-5.626 2.813c-8.44 5.626-25.319 14.066-25.319 33.758v19.692c0 19.692 16.879 36.571 39.385 36.571h16.879c19.692 0 36.571-14.066 36.571-36.571v-19.692c-2.813-16.879-16.879-36.571-39.385-36.571z" />
<glyph unicode="&#xe92f;" glyph-name="email" horiz-adv-x="1007" d="M948.044-10.549h-891.78c-14.066 0-28.132 11.253-28.132 28.132v545.758c0 8.44 2.813 16.879 11.253 22.505l447.297 326.33c8.44 5.626 22.505 5.626 30.945 0l444.484-326.33c5.626-5.626 11.253-14.066 11.253-22.505v-545.758c2.813-14.066-11.253-28.132-25.319-28.132zM84.396 45.714h838.33v506.374l-416.352 306.637-419.165-306.637v-506.374zM948.044-10.549c-5.626 0-11.253 2.813-16.879 5.626l-427.604 351.648-430.418-351.648c-11.253-8.44-28.132-8.44-39.385 2.813-8.44 11.253-8.44 28.132 2.813 39.385l447.297 365.714c11.253 8.44 25.319 8.44 33.758 0l444.484-365.714c11.253-8.44 14.066-25.319 2.813-39.385 0-2.813-8.44-8.44-16.879-8.44zM391.033 276.396c-5.626 0-11.253 2.813-16.879 5.626l-326.33 244.747c-11.253 8.44-14.066 25.319-5.626 36.571s25.319 14.066 36.571 5.626l326.33-244.747c11.253-8.44 14.066-25.319 5.626-36.571-2.813-5.626-11.253-11.253-19.692-11.253zM613.275 276.396c-8.44 0-16.879 2.813-22.505 11.253-8.44 11.253-5.626 28.132 5.626 36.571l326.33 244.747c11.253 8.44 28.132 5.626 36.571-5.626s5.626-28.132-5.626-36.571l-326.33-244.747c-2.813-2.813-8.44-5.626-14.066-5.626z" />
<glyph unicode="&#xe930;" glyph-name="left" horiz-adv-x="1536" d="M0 64v64h1536v-64h-1536zM0 256h1536v-64h-1536v64zM0 384h1536v-64h-1536v64zM0 960h960v-128h-960v128zM960-64h-960v64h960v-64zM0 512h1536v-64h-1536v64zM0 640h1536v-64h-1536v64z" />
<glyph unicode="&#xe931;" glyph-name="mid" horiz-adv-x="1536" d="M0 64v64h1536v-64h-1536zM0 256h1536v-64h-1536v64zM0 384h1536v-64h-1536v64zM256 960h1024v-128h-1024v128zM1280-64h-1024v64h1024v-64zM0 512h1536v-64h-1536v64zM0 640h1536v-64h-1536v64z" />
<glyph unicode="&#xe932;" glyph-name="right" horiz-adv-x="1536" d="M1536 64v64h-1536v-64h1536zM1536 256h-1536v-64h1536v64zM1536 384h-1536v-64h1536v64zM1536 512h-1536v-64h1536v64zM1536 640h-1536v-64h1536v64zM1536 960h-960v-128h960v128zM576-64h960v64h-960v-64z" />
<glyph unicode="&#xe933;" glyph-name="change-layout" d="M983.040 304.64h-110.592c-1.393-3.277-2.253-6.963-3.768-10.24l77.824-78.234c7.361-7.404 11.911-17.609 11.911-28.877s-4.55-21.473-11.913-28.879l0.002 0.002-144.835-144.998c-7.412-7.41-17.65-11.993-28.959-11.993s-21.547 4.583-28.959 11.993l-78.315 78.233c-3.236-1.229-6.758-2.048-10.035-3.277v-111.411c0-22.622-18.338-40.96-40.96-40.96v0h-204.8c-22.622 0-40.96 18.338-40.96 40.96v0 110.592c-3.4 1.638-7.045 2.458-10.404 4.096l-77.824-78.234c-7.412-7.41-17.65-11.993-28.959-11.993s-21.547 4.583-28.959 11.993v0l-144.835 144.998c-7.361 7.404-11.911 17.609-11.911 28.877s4.55 21.473 11.913 28.879l-0.002-0.002 78.316 78.234c-1.393 3.277-2.294 6.963-3.604 10.24h-111.452c-22.622 0-40.96 18.338-40.96 40.96v0 204.8c0 22.622 18.338 40.96 40.96 40.96v0h103.342c-4.006-10.712-8.115-24.402-11.445-38.393l-0.515-2.567h-50.422c-22.622 0-40.96-18.338-40.96-40.96v0-122.88c0-22.622 18.338-40.96 40.96-40.96v0h98.304c8.976-28.196 20.088-52.598 33.669-75.357l-0.901 1.629-29.491-29.901c-2.867 4.915-4.956 9.83-7.619 14.336l-40.182-40.141c-7.42-7.376-12.013-17.59-12.013-28.877s4.592-21.5 12.011-28.875l86.878-86.837c7.412-7.41 17.65-11.993 28.959-11.993s21.547 4.583 28.959 11.993v0l40.018 39.731c-4.669 2.867-9.667 4.915-14.254 7.782l29.778 29.901c21.179-13.267 45.57-24.786 71.326-33.308l2.402-0.688v-97.075c0-22.622 18.338-40.96 40.96-40.96v0h122.88c22.622 0 40.96 18.338 40.96 40.96v0 103.219c21.479 7.618 39.659 15.908 56.987 25.543l-1.896-0.967 4.301-4.506c4.833 2.867 9.871 4.915 14.541 7.782l29.491-29.901c-4.547-2.867-9.626-4.915-14.295-7.373l40.182-40.141c7.412-7.41 17.65-11.993 28.959-11.993s21.547 4.583 28.959 11.993l86.876 86.835c7.42 7.376 12.013 17.59 12.013 28.877s-4.592 21.5-12.011 28.875l-0.002 0.002-40.018 40.141c-2.703-4.506-4.792-9.83-7.66-14.336l-29.778 29.901c2.744 4.506 5.038 9.421 7.619 14.336l-4.383 4.506c8.858 15.494 17.154 33.614 23.838 52.495l0.738 2.391h103.055c22.622 0 40.96 18.338 40.96 40.96v0 122.88c0 22.622-18.338 40.96-40.96 40.96v0h-98.304c-8.953 28.189-20.066 52.593-33.662 75.343l0.894-1.615 29.491 29.901c2.867-4.915 4.956-9.83 7.619-14.336l40.182 40.141c7.42 7.376 12.013 17.59 12.013 28.877s-4.592 21.5-12.011 28.875l-86.878 86.837c-7.412 7.41-17.65 11.993-28.959 11.993s-21.547-4.583-28.959-11.993v0l-40.018-39.731c4.669-2.867 9.667-4.915 14.254-7.782l-29.778-29.901c-21.198 13.348-45.618 24.751-71.46 32.965l-2.268 0.622v97.485c0 22.622-18.338 40.96-40.96 40.96v0h-122.88c-22.622 0-40.96-18.338-40.96-40.96v0-50.381c-14.008-3.277-27.607-7.373-40.96-11.878v103.219c0 22.622 18.338 40.96 40.96 40.96v0h204.8c22.622 0 40.96-18.338 40.96-40.96v0-111.002c4.255-1.254 7.708-2.508 11.069-3.938l-0.665 0.251 77.824 78.234c7.412 7.41 17.65 11.993 28.959 11.993s21.547-4.583 28.959-11.993v0l144.835-144.998c7.361-7.404 11.911-17.609 11.911-28.877s-4.55-21.473-11.913-28.879l0.002 0.002-78.316-78.234c1.393-3.277 2.294-6.963 3.604-10.24h111.575c22.622 0 40.96-18.338 40.96-40.96v0-204.8c0-22.622-18.338-40.96-40.96-40.96v0zM305.48 777.318c29.951 19.004 64.566 34.545 101.381 44.813l2.74 0.652v-42.598c-28.364-8.773-52.976-19.901-75.85-33.63l1.549 0.862zM737.28 448c0-124.419-100.861-225.28-225.28-225.28s-225.28 100.861-225.28 225.28c0 124.419 100.861 225.28 225.28 225.28v0c124.419 0 225.28-100.861 225.28-225.28v0zM327.68 448c0-101.797 82.523-184.32 184.32-184.32s184.32 82.523 184.32 184.32c0 101.797-82.523 184.32-184.32 184.32v0c-101.797 0-184.32-82.523-184.32-184.32v0zM212.419 624.538c-12.752-21.271-23.798-45.831-31.868-71.703l-0.654-2.434h-42.762c10.923 39.524 26.464 74.111 46.409 105.635l-0.944-1.597zM280.289 824.422c-7.412 7.41-17.65 11.993-28.959 11.993s-21.547-4.583-28.959-11.993l-86.876-86.835c-7.42-7.376-12.013-17.59-12.013-28.877s4.592-21.5 12.011-28.875l0.002-0.002 33.26-33.587c-6.195-10.696-12.46-23.495-17.885-36.728l-0.792-2.184-72.54 72.499c-7.361 7.404-11.911 17.609-11.911 28.877s4.55 21.473 11.913 28.879l-0.002-0.002 144.835 144.998c7.412 7.41 17.65 11.993 28.959 11.993s21.547-4.583 28.959-11.993l72.54-72.499c-16.045-6.722-28.955-13.035-41.481-19.957l2.201 1.115z" />
<glyph unicode="&#xe934;" glyph-name="align" d="M32 512h960c17.673 0 32-14.327 32-32v0-64c0-17.673-14.327-32-32-32v0h-960c-17.673 0-32 14.327-32 32v0 64c0 17.673 14.327 32 32 32v0zM224 960h576c17.673 0 32-14.327 32-32v0-64c0-17.673-14.327-32-32-32v0h-576c-17.673 0-32 14.327-32 32v0 64c0 17.673 14.327 32 32 32v0zM224 64h576c17.673 0 32-14.327 32-32v0-64c0-17.673-14.327-32-32-32v0h-576c-17.673 0-32 14.327-32 32v0 64c0 17.673 14.327 32 32 32v0z" />
<glyph unicode="&#xe935;" glyph-name="italic" horiz-adv-x="650" d="M495.484 737.149c5.323 26.204 13.105 49.372 23.336 71.161l-0.804-1.907c6.958 14.82 16.783 27.241 28.849 37l0.195 0.153c10.217 7.653 22.486 13.161 35.826 15.605l0.53 0.081c12.947 2.37 28.463 4.15 44.238 4.949l0.891 0.036 21.999 96.372h-416.26l-25.588-112.988 110.728 4.32c-2.526-6.248-5.251-14.090-8.109-23.594s-5.782-19.939-8.84-31.769-6.181-23.927-9.637-36.754-6.646-25.921-9.438-39.28l-128.075-560.419c-5.293-26.211-13.1-49.404-23.392-71.192l0.795 1.871c-6.929-14.813-16.76-27.218-28.846-36.932l-0.199-0.155c-10.294-7.737-22.691-13.259-36.178-15.612l-0.51-0.074c-12.717-2.308-28.109-4.109-43.743-5.003l-1.053-0.048-21.999-96.372h416.26l25.588 112.988-110.661-4.254c2.526 6.181 5.184 14.024 8.042 23.528s5.782 19.939 8.84 31.769 6.115 23.927 9.305 36.821 6.646 25.921 9.837 39.28z" />
<glyph unicode="&#xe936;" glyph-name="link-editor" d="M110.116 1.602l-44.64 44.64c-39.996 39.992-64.734 95.242-64.734 156.271s24.738 116.279 64.734 156.271l89.28 89.28c39.85 39.718 94.832 64.275 155.549 64.275 26.685 0 52.263-4.743 75.935-13.433l-1.529 0.491-229.955-229.892c-17.152-17.141-27.761-40.827-27.761-66.991s10.609-49.85 27.761-66.991l44.64-44.64c17.141-17.152 40.827-27.761 66.991-27.761s49.85 10.609 66.991 27.761l0.001 0.001 22.288 22.351 207.603 207.603c8.199-22.143 12.942-47.72 12.942-74.406 0-60.717-24.557-115.699-64.28-155.555l-89.274-89.274c-39.992-39.996-95.242-64.734-156.271-64.734s-116.279 24.738-156.271 64.734v0zM735.199 626.685c5.711-5.713 9.243-13.604 9.243-22.32s-3.532-16.607-9.243-22.32l-312.542-312.478c-5.713-5.711-13.604-9.243-22.32-9.243s-16.607 3.532-22.32 9.243l-44.64 44.64c-5.711 5.713-9.243 13.604-9.243 22.32s3.532 16.607 9.243 22.32l312.542 312.478c5.713 5.711 13.604 9.243 22.32 9.243s16.607-3.532 22.32-9.243v0zM639.163 396.794l207.477 207.603 22.73 22.288c16.986 17.217 27.477 40.879 27.477 66.991s-10.491 49.775-27.487 67.002l0.010-0.011-44.829 44.64c-17.141 17.152-40.827 27.761-66.991 27.761s-49.85-10.609-66.991-27.761l-22.352-22.352-67.181-66.802-140.612-140.675c-8.186 22.135-12.922 47.701-12.922 74.373 0 60.724 24.548 115.715 64.262 155.589l89.273 89.273c39.982 39.939 95.195 64.639 156.176 64.639s116.194-24.7 156.178-64.641l-0.002 0.002 44.829-44.64c39.996-39.992 64.734-95.242 64.734-156.271s-24.738-116.279-64.734-156.271v0l-89.027-89.28c-39.958-39.796-95.074-64.399-155.935-64.399-26.656 0-52.209 4.719-75.87 13.368l1.535-0.491z" />
<glyph unicode="&#xe937;" glyph-name="font" horiz-adv-x="1414" d="M1312 64c0 12.8 0 19.2 0 32s0 25.6 0 32 0 19.2 0 32 0 19.2 0 25.6c0 25.6 0 44.8 0 64s0 38.4 0 51.2c0 19.2 0 32 0 51.2s0 38.4 0 64-6.4 89.6-19.2 121.6-25.6 64-51.2 83.2-51.2 38.4-83.2 51.2-70.4 12.8-108.8 12.8c-38.4 0-83.2-6.4-115.2-12.8-38.4-6.4-70.4-19.2-96-38.4s-44.8-38.4-64-57.6-25.6-51.2-25.6-76.8c0-12.8 0-25.6 6.4-38.4s6.4-19.2 19.2-32c6.4-6.4 19.2-12.8 25.6-19.2 12.8-6.4 25.6-6.4 38.4-6.4 19.2 0 32 0 44.8 6.4s19.2 12.8 32 19.2c6.4 6.4 12.8 19.2 19.2 25.6 6.4 12.8 6.4 19.2 6.4 32 0 6.4 0 12.8 0 25.6s-6.4 19.2-12.8 25.6c12.8 12.8 25.6 19.2 44.8 32s32 12.8 51.2 12.8c19.2 0 38.4 0 51.2-6.4s25.6-12.8 32-25.6c6.4-12.8 0-25.6 6.4-38.4 0-12.8-6.4-32-6.4-51.2v-76.8c0 0-51.2-6.4-83.2-12.8s-57.6-12.8-83.2-19.2-51.2-19.2-76.8-32c-25.6-12.8-44.8-32-64-51.2s-32-38.4-44.8-64c-12.8-25.6-12.8-51.2-12.8-83.2 0-25.6 6.4-51.2 12.8-76.8s19.2-44.8 38.4-57.6 38.4-32 57.6-38.4 51.2-12.8 83.2-12.8c38.4 0 70.4-6.4 108.8 6.4 32 12.8 70.4 57.6 102.4 57.6v0c0 0 0-19.2 0-32 0-6.4 0 32 6.4-32h256v128h-96zM1113.6 128c-12.8-19.2-32-25.6-51.2-38.4-19.2-6.4-38.4-12.8-64-12.8-12.8 0-19.2 0-32 6.4s-19.2 6.4-25.6 12.8c-6.4 6.4-12.8 12.8-19.2 25.6-6.4 6.4-6.4 19.2-6.4 32 0 19.2 6.4 38.4 12.8 51.2 12.8 12.8 25.6 32 38.4 38.4s38.4 19.2 64 25.6 51.2 12.8 76.8 12.8l6.4-153.6zM691.2 166.4c12.8 64 44.8 108.8 76.8 140.8l-256 652.8h-96l-281.6-761.6c-6.4-19.2-12.8-44.8-25.6-64-6.4-19.2-19.2-38.4-25.6-51.2-12.8-12.8-19.2-25.6-38.4-38.4-12.8-6.4-32-12.8-51.2-12.8v-96h320v115.2l-108.8-6.4c6.4 6.4 6.4 19.2 6.4 25.6 6.4 12.8 6.4 19.2 12.8 32s6.4 19.2 12.8 32c6.4 12.8 6.4 19.2 6.4 25.6l25.6 64 307.2 6.4 25.6-76.8c6.4-12.8 6.4-25.6 12.8-38.4s6.4-25.6 6.4-32 6.4-32-6.4-38.4c-6.4-12.8-38.4-12.8-38.4-12.8v-96h224c-83.2 32-128 115.2-108.8 230.4zM307.2 320l64 192c12.8 44.8 25.6 83.2 32 115.2 12.8 32 19.2 76.8 19.2 76.8v0c6.4 0 12.8-57.6 25.6-89.6s19.2-76.8 32-108.8l64-185.6h-236.8z" />
<glyph unicode="&#xe938;" glyph-name="heading" horiz-adv-x="1324" d="M1323.482 390.519h-228.065v52.402c8.796 0.496 16.724 1.363 23.847 2.478 6.964 1.029 13.075 4.096 17.858 8.565l-0.019-0.018c5.266 5.514 9.139 12.403 11.024 20.073l0.063 0.305c2.479 10.037 3.901 21.559 3.901 33.414 0 1.471-0.022 2.937-0.065 4.398l0.005-0.214v318.498l-86.717-51.596-27.873 47.694 181.486 133.11h48.128v-438.786c0-7.185 0-14.308 0-21.308s0-13.627-0.557-20.007-0.619-12.078-0.991-17.219-0.867-9.477-1.363-12.822l59.711 2.354v-61.321zM573.073 26.557c15.052 0.929 28.74 2.354 40.943 4.336 11.937 1.769 22.415 7.011 30.634 14.65l-0.035-0.033c8.997 9.462 15.616 21.269 18.845 34.409l0.109 0.526c4.279 17.231 6.733 37.013 6.733 57.369 0 2.544-0.038 5.079-0.114 7.605l0.009-0.37v220.88l-375.235-4.646v-200.935q0-18.582-0.372-36.607c0-12.016-0.557-23.414-0.991-34.315s-0.991-20.688-1.672-29.608-1.425-16.166-2.292-21.927l102.45 3.964v-105.299h-391.216v89.814q22.546 1.363 40.881 4.336c12.075 1.688 22.694 6.944 31.007 14.651l-0.037-0.034c8.997 9.462 15.616 21.269 18.845 34.409l0.109 0.526c4.279 17.231 6.733 37.013 6.733 57.369 0 2.544-0.038 5.079-0.114 7.605l0.009-0.37v522.282c0 12.388 0 24.776 0 36.607s0.557 23.414 1.053 34.253 0.991 20.75 1.61 29.608 1.487 16.166 2.354 21.989l-102.45-4.026v105.299h391.216v-89.814c-15.198-0.753-29.377-2.412-43.25-4.949l1.998 0.303c-11.775-2.042-22.089-7.233-30.343-14.666l0.055 0.048c-9.065-9.314-15.7-21.039-18.851-34.121l-0.102-0.504c-4.284-17.136-6.742-36.809-6.742-57.056 0-2.633 0.042-5.256 0.124-7.868l-0.010 0.382v-213.571h375.545v198.21q0 18.582 0.372 36.607c0 11.955 0.557 23.414 0.991 34.253s0.991 20.75 1.672 29.608 1.425 16.166 2.292 21.989l-102.45-4.026v105.299h391.216v-89.814c-15.209-0.761-29.388-2.42-43.263-4.95l2.011 0.304c-11.757-2.029-22.054-7.223-30.279-14.664l0.052 0.046c-9.109-9.297-15.769-21.027-18.914-34.125l-0.101-0.5c-4.278-17.229-6.732-37.009-6.732-57.362 0-2.525 0.038-5.041 0.113-7.547l-0.009 0.367v-522.282c0-12.388 0-24.776 0-36.607s-0.557-23.414-0.991-34.315-1.053-20.688-1.672-29.608-1.487-16.166-2.354-21.927l102.45 3.964v-105.299h-391.216v89.814z" />
<glyph unicode="&#xe939;" glyph-name="glass" horiz-adv-x="849" d="M836.437 405.333c-57.643-210.517-298.069-274.645-396.459-292.352v-134.315h170.667v-42.667h-384v42.667h170.667v134.528c-96.299 18.048-328.235 82.475-384 292.139-70.784 266.24 170.667 554.667 170.667 554.667h476.8s248.533-288.427 175.659-554.667zM638.549 902.869l-434.517-2.688c-67.2-114.901-155.733-299.861-105.387-409.6h649.984c52.224 110.592-40.747 297.6-110.080 412.288z" />
<glyph unicode="&#xe93a;" glyph-name="bold" d="M108.8 32c19.2 0 32 0 44.8 6.4 12.8 0 25.6 6.4 32 12.8s12.8 19.2 19.2 38.4c6.4 19.2 6.4 38.4 6.4 70.4v556.8c0 12.8 0 25.6 0 38.4s0 25.6 0 38.4c0 12.8 0 19.2 0 32 0 6.4 0 19.2 0 25.6l-102.4-6.4v108.8l403.2 6.4c57.6 0 108.8-6.4 153.6-12.8 44.8-12.8 83.2-25.6 115.2-44.8s57.6-44.8 76.8-76.8c19.2-32 25.6-70.4 25.6-108.8 0-25.6-6.4-44.8-12.8-70.4-6.4-19.2-19.2-38.4-38.4-57.6s-38.4-38.4-64-51.2c-25.6-12.8-57.6-25.6-96-38.4v0c51.2-6.4 89.6-19.2 128-38.4s64-38.4 89.6-57.6c25.6-25.6 38.4-51.2 51.2-76.8s19.2-57.6 19.2-89.6c0-44.8-6.4-89.6-25.6-128s-44.8-64-76.8-89.6c-32-25.6-70.4-44.8-108.8-57.6-44.8-12.8-89.6-19.2-140.8-19.2h-499.2v89.6zM416 38.4c25.6 0 51.2 0 70.4 0 25.6 0 44.8 0 70.4 0 32 0 57.6 6.4 76.8 19.2s38.4 25.6 51.2 38.4c12.8 19.2 25.6 38.4 32 57.6 6.4 25.6 12.8 44.8 12.8 76.8s-6.4 64-19.2 83.2c-12.8 25.6-25.6 38.4-44.8 57.6-12.8 12.8-38.4 19.2-57.6 25.6-25.6 6.4-44.8 6.4-70.4 6.4-44.8 0-83.2 0-115.2 0v-236.8c0-12.8 0-25.6 0-38.4s0-25.6 0-38.4 0-19.2 0-32c-6.4-6.4-6.4-12.8-6.4-19.2zM499.2 512c25.6 0 51.2 6.4 76.8 12.8 19.2 12.8 38.4 25.6 51.2 44.8s19.2 38.4 25.6 64c6.4 25.6 6.4 51.2 6.4 76.8 0 32-6.4 51.2-12.8 70.4s-19.2 32-38.4 44.8c-12.8 12.8-25.6 19.2-44.8 25.6-19.2 0-38.4 6.4-57.6 6.4-12.8 0-25.6 0-32-6.4-12.8 0-19.2-6.4-25.6-12.8-12.8-12.8-19.2-25.6-19.2-38.4-6.4-12.8-6.4-38.4-6.4-64v-224h76.8z" />
</font>
</defs>
</svg>
